{
	"asset" : {
		"generator" : "FME 2020.0.0.0",
		"version" : "2.0"
	},
	"images" : [
		{
			"uri" : "textures/EkonomiskKarta1920.jpg"
		}
	],
	"samplers" : [
		{
			"wrapS" : 10497,
			"wrapT" : 10497
		}
	],
	"textures" : [
		{
			"source" : 0,
			"sampler" : 0
		}
	],
	"materials" : [
		{
			"pbrMetallicRoughness" : {
				"baseColorTexture" : {
					"index" : 0,
					"texCoord" : 0
				},
				"roughnessFactor" : 0.30000000000000004,
				"metallicFactor" : 0.5
			}
		}
	],
	"meshes" : [
		{
			"primitives" : [
				{
					"attributes" : {
						"POSITION" : 0,
						"TEXCOORD_0" : 1
					},
					"indices" : 2,
					"material" : 0,
					"mode" : 4
				}
			]
		}
	],
	"nodes" : [
		{
			"matrix" : [ 1, 0, 0, 0, 0, 0, -1, 0, 0, 1, 0, 0, 0, 0, 0, 1 ],
			"mesh" : 0
		}
	],
	"scenes" : [
		{
			"nodes" : [ 0 ]
		}
	],
	"scene" : 0,
	"accessors" : [
		{
			"bufferView" : 0,
			"byteOffset" : 0,
			"componentType" : 5126,
			"count" : 14136,
			"type" : "VEC3",
			"min" : [ 115817.1640625, 6265611.5, -6.289000034332275 ],
			"max" : [ 116345.484375, 6266177, 13.66100025177002 ]
		},
		{
			"bufferView" : 1,
			"byteOffset" : 0,
			"componentType" : 5126,
			"count" : 14136,
			"type" : "VEC2",
			"min" : [ 0, 0 ],
			"max" : [ 1, 1 ]
		},
		{
			"bufferView" : 2,
			"byteOffset" : 0,
			"componentType" : 5123,
			"count" : 84669,
			"type" : "SCALAR",
			"min" : [ 0 ],
			"max" : [ 14135 ]
		}
	],
	"bufferViews" : [
		{
			"buffer" : 0,
			"byteOffset" : 0,
			"byteLength" : 169632,
			"target" : 34962
		},
		{
			"buffer" : 0,
			"byteOffset" : 169632,
			"byteLength" : 113088,
			"target" : 34962
		},
		{
			"buffer" : 0,
			"byteOffset" : 282720,
			"byteLength" : 169338,
			"target" : 34963
		}
	],
	"buffers" : [
		{
			"uri" : "EkonomiskKarta.bin",
			"byteLength" : 452058
		}
	]
}