{
    "accessors" : [
        {
            "bufferView" : 0,
            "componentType" : 5123,
            "count" : 29190,
            "max" : [
                17987
            ],
            "min" : [
                0
            ],
            "type" : "SCALAR"
        },
        {
            "bufferView" : 1,
            "componentType" : 5126,
            "count" : 17988,
            "max" : [
                267.2945556640625,
                283.30755615234375,
                5.423750400543213
            ],
            "min" : [
                -267.2944641113281,
                -283.3074951171875,
                -8.780251502990723
            ],
            "type" : "VEC3"
        },
        {
            "bufferView" : 2,
            "componentType" : 5126,
            "count" : 17988,
            "max" : [
                1.0,
                1.0,
                1.0
            ],
            "min" : [
                -1.0,
                -1.0,
                -1.0
            ],
            "type" : "VEC3"
        },
        {
            "bufferView" : 3,
            "componentType" : 5126,
            "count" : 17988,
            "max" : [
                0.0,
                1.0
            ],
            "min" : [
                0.0,
                1.0
            ],
            "type" : "VEC2"
        },
        {
            "bufferView" : 4,
            "componentType" : 5123,
            "count" : 6,
            "max" : [
                3
            ],
            "min" : [
                0
            ],
            "type" : "SCALAR"
        },
        {
            "bufferView" : 5,
            "componentType" : 5126,
            "count" : 4,
            "max" : [
                280.24139404296875,
                291.6402893066406,
                1.5063798427581787
            ],
            "min" : [
                -273.48260498046875,
                -301.8365173339844,
                1.506291389465332
            ],
            "type" : "VEC3"
        },
        {
            "bufferView" : 6,
            "componentType" : 5126,
            "count" : 4,
            "max" : [
                0.0,
                -1.4904254896919156e-07,
                -1.0
            ],
            "min" : [
                0.0,
                -1.4904254896919156e-07,
                -1.0
            ],
            "type" : "VEC3"
        },
        {
            "bufferView" : 7,
            "componentType" : 5126,
            "count" : 4,
            "max" : [
                1.0,
                0.9999999862470457
            ],
            "min" : [
                1.1536938515632755e-08,
                0.0
            ],
            "type" : "VEC2"
        }
    ],
    "asset" : {
        "generator" : "Khronos Blender glTF 2.0 exporter",
        "version" : "2.0"
    },
    "bufferViews" : [
        {
            "buffer" : 0,
            "byteLength" : 58380,
            "byteOffset" : 0,
            "target" : 34963
        },
        {
            "buffer" : 0,
            "byteLength" : 215856,
            "byteOffset" : 58380,
            "target" : 34962
        },
        {
            "buffer" : 0,
            "byteLength" : 215856,
            "byteOffset" : 274236,
            "target" : 34962
        },
        {
            "buffer" : 0,
            "byteLength" : 143904,
            "byteOffset" : 490092,
            "target" : 34962
        },
        {
            "buffer" : 0,
            "byteLength" : 12,
            "byteOffset" : 633996,
            "target" : 34963
        },
        {
            "buffer" : 0,
            "byteLength" : 48,
            "byteOffset" : 634008,
            "target" : 34962
        },
        {
            "buffer" : 0,
            "byteLength" : 48,
            "byteOffset" : 634056,
            "target" : 34962
        },
        {
            "buffer" : 0,
            "byteLength" : 32,
            "byteOffset" : 634104,
            "target" : 34962
        }
    ],
    "buffers" : [
        {
            "byteLength" : 634136,
            "uri" : "MellbyC.bin"
        }
    ],
    "materials" : [
        {
            "alphaMode" : "BLEND",
            "name" : "CityEngineMaterial_mat",
            "pbrMetallicRoughness" : {
                "baseColorFactor" : [
                    0.7008867368234206,
                    0.800000011920929,
                    0.7249499429009845,
                    0.857894778251648
                ],
                "metallicFactor" : 0.0
            }
        }
    ],
    "meshes" : [
        {
            "name" : "mesh_CityEngineMaterial",
            "primitives" : [
                {
                    "attributes" : {
                        "NORMAL" : 2,
                        "POSITION" : 1,
                        "TEXCOORD_0" : 3
                    },
                    "indices" : 0,
                    "material" : 0
                },
                {
                    "attributes" : {
                        "NORMAL" : 6,
                        "POSITION" : 5,
                        "TEXCOORD_0" : 7
                    },
                    "indices" : 4
                }
            ]
        }
    ],
    "nodes" : [
        {
            "mesh" : 0,
            "name" : "MellbystrandC",
            "rotation" : [
                0.706577718257904,
                0.0,
                -0.0,
                0.7076354622840881
            ],
            "translation" : [
                0.0,
                1.9951294660568237,
                -0.0
            ]
        }
    ],
    "scene" : 0,
    "scenes" : [
        {
            "name" : "Scene",
            "nodes" : [
                0
            ]
        }
    ]
}
